<svg width="210mm" height="297mm" viewBox="0 0 210 297" xmlns="http://www.w3.org/2000/svg"><path style="fill:none;stroke:#000;stroke-width:.467519" d="M90.52 57.881c0 4.095-1.387 7.868-3.718 10.88a18.007 18.007 0 0 1-4.312 3.998 17.933 17.933 0 0 1-9.916 2.97 17.944 17.944 0 0 1-14.377-7.163 17.704 17.704 0 0 1-3.57-10.685c0-3.075.783-5.968 2.16-8.494a17.93 17.93 0 0 1 3.577-4.585 17.937 17.937 0 0 1 12.21-4.768c4.246 0 8.148 1.467 11.221 3.919a17.94 17.94 0 0 1 4.816 5.91 17.694 17.694 0 0 1 1.909 8.018z"/></svg>