<?xml version="1.0" encoding="UTF-8" standalone="no"?>
<!-- Created with Inkscape (http://www.inkscape.org/) -->

<svg
   width="210mm"
   height="297mm"
   viewBox="0 0 210 297"
   version="1.1"
   id="svg5"
   inkscape:version="1.1 (c68e22c387, 2021-05-23)"
   sodipodi:docname="logo_verk1.svg"
   xmlns:inkscape="http://www.inkscape.org/namespaces/inkscape"
   xmlns:sodipodi="http://sodipodi.sourceforge.net/DTD/sodipodi-0.dtd"
   xmlns="http://www.w3.org/2000/svg"
   xmlns:svg="http://www.w3.org/2000/svg">
  <sodipodi:namedview
     id="namedview7"
     pagecolor="#ffffff"
     bordercolor="#666666"
     borderopacity="1.0"
     inkscape:pageshadow="2"
     inkscape:pageopacity="0.0"
     inkscape:pagecheckerboard="0"
     inkscape:document-units="mm"
     showgrid="false"
     inkscape:zoom="2.6832492"
     inkscape:cx="275.97139"
     inkscape:cy="447.219"
     inkscape:window-width="1920"
     inkscape:window-height="1010"
     inkscape:window-x="-6"
     inkscape:window-y="-6"
     inkscape:window-maximized="1"
     inkscape:current-layer="layer1" />
  <defs
     id="defs2" />
  <g
     inkscape:label="Layer 1"
     inkscape:groupmode="layer"
     id="layer1">
    <path
       style="fill:none;stroke:#000000;stroke-width:0.264583px;stroke-linecap:butt;stroke-linejoin:miter;stroke-opacity:1"
       d="m 52.260956,99.394418 c 5.752349,3.094522 11.640247,4.797102 17.650578,4.921642 6.470088,0.13406 13.082056,-1.56057 19.819541,-5.316062 -2.508135,6.173712 -3.240714,11.579862 -3.195166,16.170732 0.07638,7.69812 2.340661,13.10386 2.090123,15.99229 -0.38709,4.46272 -6.051581,3.41061 -12.730111,-1.25601 -1.785201,-1.2474 -3.642856,-2.75307 -5.491539,-4.48071 -2.53279,2.14797 -5.478278,4.20426 -8.262292,5.73821 -5.878768,3.23913 -11.037537,4.14924 -10.070175,-1.32441 0.5051,-2.85802 2.44909,-7.54238 2.602102,-14.66779 0.09271,-4.31748 -0.472128,-9.53119 -2.413061,-15.777892 z"
       id="path6637"
       sodipodi:nodetypes="cscssscsssc" />
  </g>
</svg>
